<?xml version="1.0" encoding="utf-8"?>
<!-- Generator: Adobe Illustrator 23.0.2, SVG Export Plug-In . SVG Version: 6.00 Build 0)  -->
<svg version="1.1" id="Calque_1" xmlns="http://www.w3.org/2000/svg" xmlns:xlink="http://www.w3.org/1999/xlink" x="0px" y="0px"
	 viewBox="0 0 60 60" style="enable-background:new 0 0 60 60;" xml:space="preserve">
<style type="text/css">
	.st0{fill:none;stroke:#FFFFFF;stroke-width:2;}
	.st1{fill:none;stroke:#FFFFFF;stroke-width:2;stroke-linejoin:round;}
</style>
<title></title>
<desc></desc>
<g id="Page-1">
	<g id="Facebook" transform="translate(1.000000, 1.000000)">
		<path id="Stroke-1" class="st0" d="M39,58V35.7h7.2l1.1-8.7H39v-5.5c0-2.5,0.7-4.2,4.1-4.2l4.4,0V9.4c-0.8-0.1-3.4-0.3-6.5-0.3
			c-6.4,0-10.8,4.1-10.8,11.5V27h-7.2v8.7h7.2V58H39L39,58z"/>
		<path id="Stroke-99" class="st1" d="M54,58H4c-2.2,0-4-1.8-4-4V4c0-2.2,1.8-4,4-4h50c2.2,0,4,1.8,4,4v50C58,56.2,56.2,58,54,58
			L54,58z"/>
	</g>
</g>
</svg>
