<?xml version="1.0" encoding="utf-8"?>
<!-- Generator: Adobe Illustrator 23.0.2, SVG Export Plug-In . SVG Version: 6.00 Build 0)  -->
<svg version="1.1" id="Calque_1" xmlns="http://www.w3.org/2000/svg" xmlns:xlink="http://www.w3.org/1999/xlink" x="0px" y="0px"
	 viewBox="0 0 60 60" style="enable-background:new 0 0 60 60;" xml:space="preserve">
<style type="text/css">
	.st0{fill:none;stroke:#FFFFFF;stroke-width:2;}
	.st1{fill:none;stroke:#FFFFFF;stroke-width:2;stroke-linejoin:round;}
</style>
<title></title>
<desc></desc>
<g id="Page-1">
	<g id="Instagram" transform="translate(1.000000, 1.000000)">
		<path id="Stroke-9" class="st0" d="M36.7,29c0-4.2-3.4-7.7-7.7-7.7c-4.2,0-7.7,3.4-7.7,7.7s3.4,7.7,7.7,7.7
			C33.3,36.7,36.7,33.3,36.7,29L36.7,29z M44,19v-3.8c0-0.7-0.6-1.3-1.3-1.3H39c-0.7,0-1.3,0.6-1.3,1.3V19c0,0.7,0.6,1.3,1.3,1.3
			h3.8C43.4,20.2,44,19.7,44,19L44,19z M45.3,44V25.2h-5c0.8,1,1,2.7,1,3.8c0,6.7-5.5,12.1-12.2,12.1c-6.7,0-12.2-5.4-12.2-12.1
			c0-1.1,0.2-2.9,0.9-3.8h-5V44c0,0.7,0.6,1.3,1.3,1.3h30C44.7,45.2,45.3,44.7,45.3,44L45.3,44z M49,13.7v30.5
			c0,2.6-2.1,4.7-4.8,4.7H13.8C11.1,49,9,46.9,9,44.3V13.7C9,11.1,11.1,9,13.8,9h30.5C46.9,9,49,11.1,49,13.7L49,13.7z"/>
		<path id="Stroke-107" class="st1" d="M54,58H4c-2.2,0-4-1.8-4-4V4c0-2.2,1.8-4,4-4h50c2.2,0,4,1.8,4,4v50C58,56.2,56.2,58,54,58
			L54,58z"/>
	</g>
</g>
</svg>
