<?xml version="1.0" encoding="utf-8"?>
<!-- Generator: Adobe Illustrator 23.0.2, SVG Export Plug-In . SVG Version: 6.00 Build 0)  -->
<svg version="1.1" id="Calque_1" xmlns="http://www.w3.org/2000/svg" xmlns:xlink="http://www.w3.org/1999/xlink" x="0px" y="0px"
	 viewBox="0 0 1356.3 610.8" style="enable-background:new 0 0 1356.3 610.8;" xml:space="preserve">
<style type="text/css">
	.st0{fill:#FFFFFF;}
	.st1{fill:#DD1919;}
</style>
<path class="st0" d="M308.1,208.8c-27,0-51-6.5-71.9-19.5c-26.6-15.9-39.9-38.5-39.9-67.8h80c11.4,0,22-3.9,31.8-11.6
	c11.4-9,16.9-20.3,16.5-34.2V10.4h-67.1v60.4H101V10.4H33.9v244.2H101v-133h28.5c-0.8,45.6,17.4,80.2,54.5,103.8
	c29.9,18.3,66.2,27.5,109,27.5c10.5,0.1,21.1-0.7,31.5-2.4l-3.6-41.5L308.1,208.8z"/>
<path class="st0" d="M580.8,213h-30.2c-11,15.5-19.1,32.9-23.9,51.3l105,0.5l16.2,0.1V150.7c-24.5,4.6-47.6,15.1-67.1,30.6
	L580.8,213z M608.6,29.6C582.3,9.9,545.8,0,499,0c-37,0-78.3,6.3-123.9,18.9l19.5,45.2c46.8-7.3,81.8-11,105-11
	c54.1,0,81.2,20.1,81.2,60.4H357.3v104.4c0,13.8,5.7,25.2,17.1,34.2c9.8,7.7,20.1,11.6,31.1,11.6l95.5,0.5
	c2.4-10.7,5.7-21.2,10-31.4c2.9-6.8,6.2-13.4,9.8-19.8h-96.4v-54.9h145.4c11.4-8.4,23.7-15.4,36.7-20.9c13.2-5.6,27.1-9.6,41.3-11.8
	v-11.8C647.9,77.3,634.8,49.4,608.6,29.6z"/>
<path class="st0" d="M695.6,149.2v109l8.9-0.8l9.9-0.9l48.3-4.4v-77.9C742.6,160.7,719.6,152.1,695.6,149.2z M1008.7,254.5
	c-2,0.4-6.3,1.6-12.8,3.7c-1.2,0.4-4.7,0-10.4-1.2V8.5h-60.4v227.1C865.5,165.4,813.3,89.3,769.2,8.5H653.4v11
	c0,11.8,4.7,19.5,14,23.2l28.1,3.7V124c17.6,1.8,34.8,6.3,51.1,13.2c5.5,2.3,10.9,4.9,16.1,7.8v-43c46.3,74.5,85.9,126.2,118.7,155
	c29.2,25.6,59.7,38.4,91.3,38.5c11.4,0,24.4-1.4,39-4.3L1008.7,254.5z"/>
<path class="st0" d="M1280,29.6C1253.8,9.9,1217.3,0,1170.5,0c-37,0-78.3,6.3-123.9,18.9l19.5,45.2c46.8-7.3,81.8-11,105-11
	c54.1,0,81.2,20.1,81.2,60.4h-223.4v104.4c0,13.8,5.7,25.2,17.1,34.2c9.8,7.7,20.1,11.6,31.1,11.6l242.3,1.2V113.5
	C1319.4,77.3,1306.3,49.4,1280,29.6z M1252.3,213H1096v-54.9h156.3V213z"/>
<path class="st0" d="M9.1,343.4v47h127c-36.2,26.9-67.8,59.6-94.6,98.3C11.8,532.3,0,556.1,0,590.7h62.8c0-19.4,5.4-33.9,16.9-51.9
	c6.1-9.6,13.9-20.1,23.5-33c28.9-39.1,63.5-69.4,103.8-91c24.8-13.4,47.4-21.6,67.8-24.4V344L9.1,343.4z M45.1,538.8l-18.3,51.9h235
	l13.4-51.9H45.1z"/>
<path class="st0" d="M552.1,363.9c-7.1-5.3-14.7-9.8-22.8-13.5c10.7,33.1,32.3,61.6,61.1,80.9C587.1,403,574.3,380.5,552.1,363.9z
	 M549.6,429.9c-16.4-16.4-29.5-35.8-38.5-57.1c-4.4-10.4-7.8-21.1-10.1-32.1c-17.3-4.2-36.7-6.3-58.4-6.3c-37,0-78.3,6.3-123.9,18.9
	l19.5,45.2c46.8-7.3,81.8-11,105-11c54.1,0,81.2,20.1,81.2,60.4H300.9v104.4c0,13.8,5.7,25.2,17.1,34.2c9.8,7.7,20.1,11.6,31.1,11.6
	l242.3,1.2V461.1C576.1,452.8,561.9,442.3,549.6,429.9L549.6,429.9z M524.3,547.3H368.1v-54.9h156.3V547.3z"/>
<path class="st0" d="M797.2,369.1v30.7c8.5-10.5,15.5-22.1,21-34.5L797.2,369.1z M962.6,345.3v189.3c-33,13-65.7,21.2-98.3,24.4
	v-202l-17.3,3.1c-1.4,4.3-3.1,8.5-4.8,12.8c-9,21.4-22.1,40.7-38.5,57.1c-2.1,2.1-4.3,4.2-6.5,6.2V559c-29.7-3.2-60-11.2-90.9-23.8
	v-55c-9.8,1.6-19.7,2.4-29.6,2.4c-12.6,0-25.2-1.3-37.5-3.9V567c24.4,15.9,59.2,27.7,104.4,35.4c32.6,5.7,62.1,8.5,88.5,8.5
	c24.8,0,54.9-3.5,90.4-10.4c46.4-8.9,81.8-21.4,106.2-37.2v-218H962.6z M675.6,342.4l-18,0.1l-33.2,0.2H620l-22.4,0.1v11
	c0,11.8,4.6,19.5,13.8,23.2l16.3,2.2l3.4,0.5l7.9,1v72.3c12.3,3.1,24.9,4.6,37.5,4.6c9.9,0,19.9-0.9,29.6-2.8V342.2L675.6,342.4z"/>
<path class="st0" d="M1317,363.9c-26.2-19.7-62.8-29.6-109.6-29.6c-37,0-78.3,6.3-123.9,18.9l19.5,45.2c46.8-7.3,81.8-11,105-11
	c54.1,0,81.2,20.1,81.2,60.4h-223.4v104.4c0,13.8,5.7,25.2,17.1,34.2c9.8,7.7,20.1,11.6,31.1,11.6l242.3,1.2V447.8
	C1356.3,411.6,1343.2,383.6,1317,363.9z M1289.2,547.3h-156.3v-54.9h156.3L1289.2,547.3z"/>
<path class="st1" d="M831.3,302.8c0,21.5-4.4,42.8-13.1,62.5c-5.5,12.4-12.5,24-21,34.5c-22.9,28.5-55.1,47.9-90.9,54.9
	c-9.8,1.9-19.7,2.8-29.6,2.8c-12.7,0-25.3-1.5-37.5-4.6c-17.3-4.3-33.8-11.6-48.6-21.6c-28.9-19.4-50.4-47.8-61.2-80.9
	c-5-15.4-7.5-31.5-7.5-47.6c0-13,1.6-25.9,4.8-38.5c4.7-18.4,12.8-35.8,23.9-51.3c8.5-12,18.7-22.6,30.2-31.7
	c19.6-15.5,42.6-26,67.1-30.6c9.5-1.8,19.1-2.7,28.7-2.7c6.3,0,12.6,0.4,18.9,1.2c24,2.9,47,11.5,67.1,25
	C805.6,202.9,831.4,251.1,831.3,302.8z"/>
<path class="st0" d="M724.1,261.5l-9.6-5.1l-6.4-3.3h19.7v-16h-41.5v-11H712V215c6.5,3.8,13.2,7.3,20.1,10.5c3-5.1,6.5-11,10.6-17.7
	c-19.4-6.3-33.8-13.8-47.2-26.5c-1.9-1.8-3.8-3.7-5.7-5.8l-4.5-5.8h-17c-5.9,7.4-12.8,14-20.4,19.6c-10.3,7.7-22.9,14.8-37.6,21.1
	c4.1,6.2,7.7,11.9,10.9,17.1c7.2-3.9,14-8,20.4-12.1v10.6h25.1v11h-41.4v16h41.4v25.8h-20.1l12.7-8c-3.9-5.1-7.7-9.8-11.4-14.1
	c-0.9-1.1-1.9-2.2-2.8-3.3l-15.2,9.2l1.9,2.2c4.4,5.3,8.2,10,11.2,14h-28.1v16h123.8v-16h-28.3C714.6,273.5,719.2,267.8,724.1,261.5
	z M649.3,210.1c9.8-6.9,19-14.6,27.4-23.1c5.7,6.2,12,11.9,18.8,17c2.8,2.1,5.7,4.1,8.7,6.1L649.3,210.1z M686.3,278.9v-25.8h21.1
	c-0.9,1.4-1.9,2.8-2.9,4.3c-3.3,4.8-6.8,9.7-10.5,14.5l12.6,7L686.3,278.9z"/>
<path class="st0" d="M624.3,342.7c-0.9-0.7-1.8-1.3-2.8-2l-1.6,2l-9.1,10.9c7.6,5.9,14.7,12.3,21.5,19.2l12.4-13.7
	C638.3,353.2,631.5,347.7,624.3,342.7z M639.1,382.8c-2.9-1-5.5-2.1-7.9-3.2c-1.1-0.5-2.2-1-3.1-1.5c-0.1,0.3-0.2,0.7-0.3,1
	c-5.4,19.9-10.7,36.4-15.8,49.7l18.1,6.2c2.7-9.1,5.7-18.9,9-29.4c2-6.6,4.2-13.5,6.4-20.6C643.2,384.3,641.1,383.5,639.1,382.8z
	 M627.6,306.8l-10.8,12.7c8.8,6.7,16.6,13,23.1,18.8l12.1-13.7C644.5,318.9,636.4,313,627.6,306.8L627.6,306.8z M706.2,381.5
	c-1.5-3.1-2.7-6.4-3.9-9.7h31v-58.2h-75.8v48.1c0,27.3-6,47.6-17.9,60.8c5.2,4.1,10.2,8.6,14.8,13.3c12.4-16.7,19.2-38.1,20.6-64
	h10.4c4.4,17.3,11.3,31.7,20.7,43.1c6.4,7.8,14.2,14.4,22.9,19.3c4.3-5.5,8.9-10.7,13.8-15.6C726.5,411.1,714.2,398.8,706.2,381.5z
	 M675.6,355.3v-25.1h40.1v25.1H675.6z"/>
</svg>
